<?xml version="1.0" encoding="UTF-8" standalone="no"?>
<svg width="101px" height="17px" viewBox="0 0 101 17" version="1.1" xmlns="http://www.w3.org/2000/svg" xmlns:xlink="http://www.w3.org/1999/xlink" xmlns:sketch="http://www.bohemiancoding.com/sketch/ns">
    <!-- Generator: Sketch 3.3.2 (12043) - http://www.bohemiancoding.com/sketch -->
    <title>Logo</title>
    <desc>Created with Sketch.</desc>
    <defs></defs>
    <g id="Home" stroke="none" stroke-width="1" fill="none" fill-rule="evenodd" sketch:type="MSPage">
        <g id="Tablet-Portrait-768" sketch:type="MSArtboardGroup" transform="translate(-30.000000, -28.000000)" fill="#EEA12D">
            <g id="Menu" sketch:type="MSLayerGroup" transform="translate(30.000000, 15.000000)">
                <path d="M92.9218959,26.3017592 C87.3710793,26.3017592 81.6615423,26.2687841 81.0015997,21.3884622 C80.9211403,20.7865558 81.1686738,20.1477173 81.4021378,19.6183562 C83.0218771,15.9655891 88.707672,16.1946565 94.0078774,16.1964152 C96.0022144,16.1964152 100.977944,16.4545007 100.527284,14.5120446 C100.171592,13.5368596 99.0170223,13.4559605 97.7679236,13.3416467 C96.5227821,13.2260138 94.8173074,13.2625063 93.4103677,13.2625063 L86.1285757,13.2625063 C85.4233472,13.2989988 84.71636,13.3350517 84.0111315,13.3715442 C82.4322814,13.5289455 82.6050712,13.5082811 80.6964696,13.860016 C76.3762856,15.0066718 72.1651393,16.1418963 71.7861449,21.0327702 C71.6889782,22.2704375 72.0816023,23.349824 72.5458924,24.0748376 C73.0150188,24.8064462 73.5369055,25.4795789 74.2298233,25.9777234 C78.6484931,29.1297079 85.3934497,29.1811492 93.0841336,29.1811492 C95.3866783,29.1811492 99.8308489,29.4937536 100.472765,27.9861298 C100.54575,27.7038625 100.54575,27.6519816 100.472765,27.443139 C99.8919629,25.8924277 95.2028968,26.3017592 92.9218959,26.3017592 L92.9218959,26.3017592 Z M65.3194986,15.7624622 C60.38158,12.8439418 52.1509831,13.2005131 44.1841873,13.2625063 C43.2129593,13.3350517 43.2076832,13.2897658 41.8473485,13.5883008 C39.6964895,14.1211792 37.3112871,14.8308044 36.3057649,16.5222096 C35.5235944,17.8376982 35.9056664,22.7254945 35.9056664,24.7849024 C35.9056664,25.5617969 35.8498285,26.9700556 36.1584759,27.5367885 C36.7748913,28.6684955 38.5300486,29.0052817 40.0548194,29.1266303 C40.9535021,29.1991756 41.9462739,29.1231129 42.5987422,28.9775826 C43.821021,28.7045484 45.1189228,28.4381092 45.5418841,27.3886201 C45.762158,26.84475 45.6513615,25.877479 45.6513615,25.1612588 L45.6513615,19.6183562 C45.6504822,18.825194 45.4715371,17.4718939 45.8144786,16.9574816 C46.486732,15.9458041 48.642867,15.9778999 50.3232805,15.9778999 C53.7997405,15.9796585 57.3188483,16.6083847 58.8541712,18.5868936 C59.395843,19.284208 59.9084966,20.4027251 59.6684375,21.6847988 C59.0863162,24.8121619 56.1827445,25.5921341 53.0413121,26.1382025 C50.6890848,26.5479737 46.8666057,25.9016608 46.6291846,27.443139 C46.5737864,27.9861298 46.7558092,28.2622417 47.0635772,28.474162 C48.0414003,29.1565277 53.4902138,29.3781207 55.4854301,29.1266303 C61.2811421,28.401177 67.93157,27.6642924 69.0144738,21.8470366 C69.6216562,18.5868936 67.0759748,16.8000802 65.3194986,15.7624622 L65.3194986,15.7624622 Z M29.4056052,22.1183121 C30.7162575,21.5845544 32.2045358,20.6704833 32.6657482,19.2938808 C32.7910538,18.9236798 32.7914934,18.4338889 32.8090802,17.9981773 C32.8095199,15.6349583 31.3155258,15.0312933 29.6768808,14.3484879 C26.8845452,13.1864437 22.9332432,13.2625063 18.9195081,13.2625063 L8.81328474,13.2625063 C7.95241354,13.3082319 7.29071223,13.2013924 6.24298186,13.487177 C4.18313427,14.0002703 2.21693611,14.7793631 1.15205866,16.305453 C0.214245444,17.6473217 0.663586795,22.4001397 0.663586795,24.6732266 C0.680733873,25.5952117 0.700079293,26.5202746 0.71722637,27.443139 C0.721183388,27.8735746 1.45762836,28.41041 2.29343845,28.6385981 C3.32665976,28.8931662 3.92109176,29.0268255 4.95563208,29.1266303 C7.31973036,29.2721606 10.3028821,28.5924329 10.2800193,27.2246237 C10.2984854,24.6002416 10.3165118,21.9727818 10.3345382,19.3483997 C10.3345382,18.0623689 10.1287733,16.6923614 11.0410857,16.305453 C12.4146106,15.721573 19.4994311,15.8385249 21.3645054,16.0869377 C22.386735,16.2236746 23.2647533,16.2329077 23.4837083,16.9029627 C25.3523,22.6344831 14.4573111,18.687138 13.1057697,21.5208024 C12.7579918,22.4159678 15.3309327,23.356419 16.2568748,23.8567619 C18.3030927,24.9612096 20.3506296,26.0687349 22.3968474,27.1727428 C23.6186866,27.8858854 24.8194216,28.7142211 26.3626586,29.0721113 C28.4137128,29.5482725 32.2581754,28.5137322 32.7193878,27.3341012 C33.5996044,25.0825581 27.3435593,23.4474304 27.4499591,22.8798182 C27.5704283,22.5126949 28.8089749,22.3614489 29.4056052,22.1183121 L29.4056052,22.1183121 Z" id="Logo" sketch:type="MSShapeGroup"></path>
            </g>
        </g>
    </g>
</svg>